HIERARCHY
ROOT Hips
{
	OFFSET 0.000000 0.000000 0.000000
	CHANNELS 6 Xposition Yposition Zposition Xrotation Yrotation Zrotation
	JOINT LeftUpLeg_virtual
	{
		OFFSET 0.000000 0.000000 0.000000
		CHANNELS 3 Xrotation Yrotation Zrotation
		JOINT LeftUpLeg
		{
			OFFSET 15.427100 -6.655098 0.678600
			CHANNELS 3 Xrotation Yrotation Zrotation
			JOINT LeftLeg
			{
				OFFSET 4.081073 -39.591068 13.024000
				CHANNELS 3 Xrotation Yrotation Zrotation
				JOINT LeftFoot
				{
					OFFSET -4.081074 -37.707932 -15.979700
					CHANNELS 3 Xrotation Yrotation Zrotation
					JOINT LeftToeBase
					{
						OFFSET 5.346399 -15.068900 20.645000
						CHANNELS 3 Xrotation Yrotation Zrotation
						JOINT LeftToe_End
						{
							OFFSET 2.754700 0.931300 11.300900
							CHANNELS 3 Xrotation Yrotation Zrotation
							End Site
							{
								OFFSET 0 0 0
							}
						}
					}
				}
			}
		}
	}
	JOINT RightUpLeg_virtual
	{
		OFFSET 0.000000 0.000000 0.000000
		CHANNELS 3 Xrotation Yrotation Zrotation
		JOINT RightUpLeg
		{
			OFFSET -15.569500 -6.655098 0.678600
			CHANNELS 3 Xrotation Yrotation Zrotation
			JOINT RightLeg
			{
				OFFSET -4.081825 -39.591045 13.023800
				CHANNELS 3 Xrotation Yrotation Zrotation
				JOINT RightFoot
				{
					OFFSET 4.081824 -37.707954 -15.979600
					CHANNELS 3 Xrotation Yrotation Zrotation
					JOINT RightToeBase
					{
						OFFSET -5.346400 -15.068900 20.645000
						CHANNELS 3 Xrotation Yrotation Zrotation
						JOINT RightToe_End
						{
							OFFSET -2.754700 0.931300 11.300900
							CHANNELS 3 Xrotation Yrotation Zrotation
							End Site
							{
								OFFSET 0 0 0
							}
						}
					}
				}
			}
		}
	}
	JOINT Spine_virtual
	{
		OFFSET 0.000000 0.000000 0.000000
		CHANNELS 3 Xrotation Yrotation Zrotation
		JOINT Spine
		{
			OFFSET -0.279200 12.230698 -2.892100
			CHANNELS 3 Xrotation Yrotation Zrotation
			JOINT Spine1
			{
				OFFSET -0.232667 10.192268 -1.242267
				CHANNELS 3 Xrotation Yrotation Zrotation
				JOINT Spine1_split
				{
					OFFSET -0.232667 10.192268 -1.242267
					CHANNELS 3 Xrotation Yrotation Zrotation
					JOINT Spine2
					{
						OFFSET -0.232667 10.192268 -1.242267
						CHANNELS 3 Xrotation Yrotation Zrotation
						JOINT Neck_virtual
						{
							OFFSET 0.000000 0.000000 0.000000
							CHANNELS 3 Xrotation Yrotation Zrotation
							JOINT Neck
							{
								OFFSET -0.418800 17.814194 8.416900
								CHANNELS 3 Xrotation Yrotation Zrotation
								JOINT Head
								{
									OFFSET 0.000000 7.031097 3.806800
									CHANNELS 3 Xrotation Yrotation Zrotation
									JOINT HeadTop_End
									{
										OFFSET 0.000000 24.646606 12.978600
										CHANNELS 3 Xrotation Yrotation Zrotation
										End Site
										{
											OFFSET 0 0 0
										}
									}
								}
							}
						}
						JOINT LeftShoulder_virtual
						{
							OFFSET 0.000000 0.000000 0.000000
							CHANNELS 3 Xrotation Yrotation Zrotation
							JOINT LeftShoulder
							{
								OFFSET 8.476499 7.247704 -3.868750
								CHANNELS 3 Xrotation Yrotation Zrotation
								JOINT LeftShoulder_split
								{
									OFFSET 8.476499 7.247704 -3.868750
									CHANNELS 3 Xrotation Yrotation Zrotation
									JOINT LeftArm
									{
										OFFSET 9.308998 -2.777710 0.208600
										CHANNELS 3 Xrotation Yrotation Zrotation
										JOINT LeftForeArm
										{
											OFFSET 29.972298 0.000000 0.000000
											CHANNELS 3 Xrotation Yrotation Zrotation
											JOINT LeftHand
											{
												OFFSET 26.026505 0.000000 0.000000
												CHANNELS 3 Xrotation Yrotation Zrotation
												End Site
												{
													OFFSET 0 0 0
												}
											}
										}
									}
								}
							}
						}
						JOINT RightShoulder_virtual
						{
							OFFSET 0.000000 0.000000 0.000000
							CHANNELS 3 Xrotation Yrotation Zrotation
							JOINT RightShoulder
							{
								OFFSET -7.570500 7.247704 -3.868750
								CHANNELS 3 Xrotation Yrotation Zrotation
								JOINT RightShoulder_split
								{
									OFFSET -7.570500 7.247704 -3.868750
									CHANNELS 3 Xrotation Yrotation Zrotation
									JOINT RightArm
									{
										OFFSET -9.308998 -2.777710 0.208500
										CHANNELS 3 Xrotation Yrotation Zrotation
										JOINT RightForeArm
										{
											OFFSET -29.972300 0.000000 0.000000
											CHANNELS 3 Xrotation Yrotation Zrotation
											JOINT RightHand
											{
												OFFSET -26.026505 0.000000 0.000000
												CHANNELS 3 Xrotation Yrotation Zrotation
												End Site
												{
													OFFSET 0 0 0
												}
											}
										}
									}
								}
							}
						}
					}
				}
			}
		}
	}
}
MOTION
Frames: 7
Frame Time: 0.03333333
52.796917 71.662910 228.252884 0.000000 0.000000 0.000000 -3.035887 16.866100 -14.463042 -12.880920 6.386955 -3.209965 70.780875 1.833431 -0.095462 17.690467 5.235036 20.512549 5.516538 -0.271464 1.271671 0.000000 0.000000 0.000000 0.385031 18.992321 -15.235922 -41.034554 16.511301 4.871875 40.040017 4.199783 2.190960 1.540497 3.315847 10.908607 -7.913754 -1.099067 0.082384 0.000000 0.000000 0.000000 -1.395592 22.828266 -13.845765 2.630274 -9.857767 -2.104071 3.384712 -2.690174 1.234653 -0.133520 0.205122 0.081037 0.000000 0.000000 0.000000 2.397791 -4.120453 2.290797 -1.773352 2.990669 1.096407 -9.957880 33.871396 4.502630 0.000000 0.000000 0.000000 1.672397 -3.174669 1.736712 -0.553269 -0.255801 -9.377775 2.094934 3.975148 0.070139 17.503068 -13.589734 -45.912433 39.294628 -86.086939 35.001096 0.000000 0.000000 0.000000 2.757713 -3.758432 1.769236 0.684179 -4.257758 7.867533 2.774091 8.650911 -1.178736 37.176197 11.268387 50.458005 -179.842965 84.377678 177.311711 0.000000 0.000000 0.000000 
57.594128 68.750420 239.920349 0.000000 0.000000 0.000000 -4.913982 16.145710 -14.803373 -29.806662 8.206494 -1.571400 84.045751 3.164924 0.931985 12.416905 2.703524 23.202501 0.216334 -0.467342 1.775168 0.000000 0.000000 0.000000 -0.178082 21.424818 -16.314882 -33.350936 13.500146 5.941185 50.666681 2.799082 4.128960 -17.940740 1.682740 3.759272 -7.069139 -1.175934 0.861483 0.000000 0.000000 0.000000 -4.680844 23.977150 -13.867485 5.354921 -6.721856 -1.546168 3.886252 -1.057351 1.437850 -0.398773 0.779764 0.089768 0.000000 0.000000 0.000000 2.916626 -2.554146 2.522418 -3.010907 2.754178 1.076513 -9.894754 31.458434 4.443719 0.000000 0.000000 0.000000 2.575201 -1.493915 1.604818 -0.347151 0.289684 -9.800570 1.095275 2.314381 -1.845418 27.967451 -15.973782 -50.644101 13.920046 -72.132931 9.541714 0.000000 0.000000 0.000000 3.590980 -1.967355 1.812394 0.220827 -2.790377 10.478480 2.749041 7.603062 0.102225 23.424417 17.958067 51.627692 -150.606354 88.930641 147.584378 0.000000 0.000000 0.000000 
61.266964 66.803986 249.315582 0.000000 0.000000 0.000000 -5.934163 16.816049 -15.036684 -46.422740 9.328661 0.157866 93.261691 4.929600 1.341865 6.491145 0.683902 25.885853 -3.819378 -0.388778 0.568771 0.000000 0.000000 0.000000 -0.899696 24.537550 -16.731634 -28.454145 10.871889 5.763551 60.943012 3.495151 5.860222 -31.798950 2.935903 -0.123116 -7.079007 -1.197162 1.432462 0.000000 0.000000 0.000000 -7.599315 25.131249 -13.799071 7.586114 -3.555996 -0.896242 4.484246 0.378745 1.511401 0.050882 1.274198 0.164591 0.000000 0.000000 0.000000 3.631539 -0.992719 2.556832 -3.437003 2.550322 1.082329 -9.697509 28.910415 4.583223 0.000000 0.000000 0.000000 3.433953 0.077394 1.579089 -0.181064 0.940288 -8.968018 -0.241983 0.788767 -2.882741 34.812194 -17.993310 -54.485426 10.407998 -62.602112 6.934907 0.000000 0.000000 0.000000 4.458588 -0.349413 1.705887 -0.238287 -2.152610 12.051826 3.101981 5.967842 0.453185 8.855858 22.024027 54.310775 -124.751056 89.055599 121.994869 0.000000 0.000000 0.000000 
63.901421 65.728607 255.788834 0.000000 0.000000 0.000000 -5.522936 17.808038 -15.434038 -59.140101 8.347943 1.585430 97.835930 6.096273 1.157352 4.364122 0.803509 26.624118 -2.601561 0.187278 -2.395430 0.000000 0.000000 0.000000 -1.612709 27.365228 -16.854545 -25.577897 8.966368 4.055420 67.003186 6.355019 6.663786 -37.942589 5.024759 0.844526 -8.750430 -1.253462 1.585121 0.000000 0.000000 0.000000 -9.046757 25.962942 -14.123403 8.892489 -0.850921 -0.128809 5.060544 1.357783 1.451614 0.514743 1.798229 0.222144 0.000000 0.000000 0.000000 4.438863 0.258133 2.411653 -3.182041 2.303810 1.255167 -9.665091 26.848282 4.838240 0.000000 0.000000 0.000000 4.070549 1.319394 1.642101 -0.093964 1.473180 -7.474378 -1.325789 -0.494423 -2.262042 38.275198 -18.211291 -57.427254 7.713998 -59.902357 5.839330 0.000000 0.000000 0.000000 5.125502 0.807648 1.502371 -0.468168 -2.143925 12.362266 3.580394 4.321032 0.330874 -2.302105 23.168300 56.605135 -161.379885 87.420629 159.551470 0.000000 0.000000 0.000000 
65.786446 65.248123 260.061523 0.000000 0.000000 0.000000 -4.002145 19.123341 -16.195970 -66.512129 6.446802 3.157654 98.206393 6.602011 0.350333 5.693323 2.965397 26.470262 0.776389 0.689561 -4.758781 0.000000 0.000000 0.000000 -1.535576 28.742160 -17.252723 -23.632103 7.569826 1.541985 68.637343 9.707016 6.613910 -38.888225 6.579571 3.976673 -8.854265 -1.335046 1.276075 0.000000 0.000000 0.000000 -8.933898 26.057423 -14.823785 9.089157 1.105246 0.879427 5.511350 1.788390 1.335198 0.720857 1.659906 0.253802 0.000000 0.000000 0.000000 5.161063 0.992245 2.216732 -2.655291 2.082975 1.611263 -10.169832 25.734165 5.176865 0.000000 0.000000 0.000000 4.458236 1.975783 1.705253 -0.075608 1.739891 -5.932803 -1.748404 -1.159380 -1.352973 39.033390 -17.238882 -59.410324 4.609102 -62.235331 4.376853 0.000000 0.000000 0.000000 5.558553 1.399279 1.285942 -0.399233 -2.334083 11.759853 4.264618 3.517119 -0.149943 -8.007676 21.995738 57.740568 -169.400754 85.845458 168.705235 0.000000 0.000000 0.000000 
67.168823 64.840355 261.372009 0.000000 0.000000 0.000000 -2.150585 19.791771 -17.309619 -68.214260 4.713112 4.625165 96.006245 6.942393 -0.801515 8.780140 5.891786 26.134932 2.761578 0.988310 -5.422348 0.000000 0.000000 0.000000 -0.964791 28.280345 -18.118863 -22.209748 6.392363 -0.742541 67.654779 12.416696 6.553721 -38.073944 7.275780 6.459596 -5.378673 -1.323035 0.617782 0.000000 0.000000 0.000000 -7.751500 25.204291 -15.813228 8.619980 2.355985 2.057078 5.813307 1.738863 1.204012 1.518225 1.441149 0.364633 0.000000 0.000000 0.000000 5.560960 1.150504 2.042546 -2.115363 1.837728 2.181769 -11.319007 25.549216 5.532530 0.000000 0.000000 0.000000 4.700681 2.009884 1.665686 -0.054079 1.626589 -5.128635 -2.427047 -1.077377 -0.753490 38.826221 -15.773987 -60.761049 0.156620 -66.035498 1.292489 0.000000 0.000000 0.000000 5.785148 1.455251 1.130949 -0.089170 -2.356272 10.657422 4.561411 3.321276 -0.479454 -8.978446 19.835663 57.911357 -170.428396 85.780168 170.707492 0.000000 0.000000 0.000000 
68.225014 64.130150 261.294739 0.000000 0.000000 0.000000 -0.796164 20.285119 -18.651385 -66.787174 3.354832 5.976004 93.451277 6.414845 -1.595302 12.978521 7.683036 24.412288 3.299650 1.238524 -5.383499 0.000000 0.000000 0.000000 -0.626493 27.093035 -19.254728 -21.296163 5.044470 -2.425562 66.829405 14.232549 6.670171 -36.988961 7.232630 7.436707 -0.569887 -1.204265 -0.364608 0.000000 0.000000 0.000000 -6.038456 24.076987 -16.739824 7.783076 2.962122 3.209904 6.040989 1.388875 1.102792 1.809813 1.303624 0.346455 0.000000 0.000000 0.000000 5.587292 0.846156 1.936492 -1.725261 1.585715 2.800902 -12.805306 26.181059 5.730517 0.000000 0.000000 0.000000 4.946226 1.580152 1.513710 -0.052599 1.144466 -5.207939 -3.232334 -0.127598 -1.045552 38.823468 -14.557744 -61.512540 -4.255997 -68.366505 -2.389603 0.000000 0.000000 0.000000 5.874543 1.170356 1.092154 0.333858 -1.990719 9.590479 3.868163 3.581251 -0.329697 -7.138344 18.032213 57.441310 -166.248840 87.065883 166.963646 0.000000 0.000000 0.000000 
